<svg width="50" height="69" viewBox="0 0 50 69" fill="none" xmlns="http://www.w3.org/2000/svg">
<g transform="translate(14 14) scale(0.7 0.7)">
<path fill-rule="evenodd" clip-rule="evenodd" d="M14.8867 10.1643V19.4598H17.2209V24.8329H22.9973V19.4598H27.0062V30.206L20.7013 42.0233L13.5031 41.9146L6.30486 42.0233L0 30.206V19.4598H3.99065V24.8329H9.78528V19.4598H12.3588V1.26395C12.3588 0.565889 12.9247 0 13.6228 0C14.1263 0 14.561 0.2944 14.7642 0.72045C15.4031 0.965338 16.0466 1.61238 16.7119 2.28137C17.5022 3.07602 18.3232 3.90163 19.2039 4.12095C20.0931 4.34242 20.7524 4.10563 21.4951 3.83887C22.2743 3.559 23.1453 3.24616 24.4701 3.39486C25.4635 3.51174 25.9901 4.16046 26.5791 4.88586C27.3621 5.85033 28.2552 6.95035 30.5016 7.11611L30.4874 7.12612C29.0491 8.14179 27.084 9.5295 24.0327 9.2581C23.0785 9.17577 22.4062 8.86812 21.7616 8.57316C20.8429 8.15279 19.9805 7.75817 18.4385 8.07819C16.7695 8.41302 15.9262 9.20317 15.2849 9.80403C15.1447 9.9354 15.0141 10.0577 14.8867 10.1643Z" fill="#647fa9"/>
</g>
<g transform="translate(-5 0) scale(0.6 0.6)">
	<path fill="#647fa9" d="M50,12.5c-20.712,0-37.5,16.793-37.5,37.502C12.5,70.712,29.288,87.5,50,87.5
		c20.712,0,37.5-16.788,37.5-37.498C87.5,29.293,70.712,12.5,50,12.5z M50,77.561c-15.199,0-27.561-12.362-27.561-27.559
		c0-6.702,2.407-12.853,6.4-17.636l38.795,38.795C62.852,75.153,56.703,77.561,50,77.561z M71.161,67.635L32.366,28.839
		c4.782-3.992,10.931-6.4,17.634-6.4c15.198,0,27.56,12.367,27.56,27.562C77.56,56.704,75.153,62.853,71.161,67.635z"/>
</g>
</svg>
